<svg id="Layer_1" data-name="Layer 1" xmlns="http://www.w3.org/2000/svg" viewBox="0 0 436.11 600"><defs><style>.cls-1{fill:#fff;}</style></defs><path class="cls-1" d="M436.11,291.63,229.9,0,206.21,16.75l48.18,68.13a121,121,0,0,0-36.34-5.59c-43.79,0-84.61,23.62-114.94,66.52C73.85,187.19,57.74,242,57.74,300a306.63,306.63,0,0,0,3.2,44.32L23.68,291.63,0,308.37,206.21,600l23.69-16.75-48.18-68.13a121,121,0,0,0,36.33,5.59h0c43.79,0,84.62-23.63,115-66.52,29.26-41.38,45.37-96.14,45.37-154.19a305.31,305.31,0,0,0-3.21-44.32l37.26,52.69ZM115,418.27A223.27,223.27,0,0,1,96.59,373l77.64-109.81,25.2,35.64ZM192,238,271.78,125.2a137.11,137.11,0,0,1,30.52,28.11L217.19,273.66Zm127.66-59a221.31,221.31,0,0,1,19.72,47.56l-77.75,110L235,298.79ZM126.79,162.56c24.75-35,57.16-54.27,91.26-54.27a91.51,91.51,0,0,1,27.2,4.18L88.72,333.84C81.23,273.5,93.9,209.08,126.79,162.56ZM309.32,437.44c-24.75,35-57.16,54.27-91.27,54.27-31.77,0-62.06-16.73-86.06-47.3l85.2-120.5,20.91,29.56c5.83,8.25,14.41,13,23.53,13s17.71-4.73,23.54-13l62.15-87.89C355,326.09,342.31,390.77,309.32,437.44Z"/></svg>