<svg id="Layer_1" data-name="Layer 1" xmlns="http://www.w3.org/2000/svg" viewBox="0 0 435.62 600"><defs><style>.cls-1{fill:#1d1d1b;}</style></defs><path class="cls-1" d="M435.62,291.64,229.64.33,206,17.06,254.1,85.12a120.67,120.67,0,0,0-36.29-5.59c-43.74,0-84.52,23.6-114.82,66.46-29.22,41.32-45.32,96-45.32,154a304.52,304.52,0,0,0,3.21,44.27L23.66,291.64,0,308.37l206,291.3,23.66-16.73-48.12-68.06a120.67,120.67,0,0,0,36.29,5.59h0c43.74,0,84.52-23.6,114.82-66.46C361.85,412.69,378,358,378,300a304.52,304.52,0,0,0-3.21-44.27L412,308.37ZM114.82,418.13a223,223,0,0,1-18.34-45.25L174,263.19l25.17,35.6Zm77-180,79.7-112.71A137.26,137.26,0,0,1,302,153.47L217,273.69Zm127.53-59A221.92,221.92,0,0,1,339,226.65L261.34,336.47,234.7,298.79ZM126.65,162.71c24.72-34.95,57.09-54.2,91.16-54.2A91.31,91.31,0,0,1,245,112.68L88.62,333.81C81.14,273.53,93.79,209.18,126.65,162.71ZM309,437.29c-24.72,34.95-57.09,54.2-91.16,54.2-31.73,0-62-16.71-86-47.24L217,323.88l20.88,29.53c5.83,8.24,14.4,13,23.51,13s17.69-4.73,23.51-13l62.08-87.79C354.56,326.06,341.93,390.67,309,437.29Z"/></svg>